<svg xmlns="http://www.w3.org/2000/svg" width="27.389" height="22.716" viewBox="0 0 27.389 22.716">
    <defs>
        <style>
            .cls-1{fill:none;stroke:#6f4b99;stroke-linecap:round;stroke-linejoin:round;stroke-width:1.3px}
        </style>
    </defs>
    <g id="Group_26" transform="translate(-2286.212 -464.705)">
        <path id="Path_18" d="M2303.018 482.627c5.7-.937 9.933-4.392 9.933-8.511 0-4.838-5.841-8.761-13.045-8.761s-13.044 3.923-13.044 8.761c0 3.506 3.066 6.529 7.495 7.93l-.616 4.725 4.544-3.963" class="cls-1"/>
        <g id="Group_25">
            <path id="Path_19" fill="#6f4b95" d="M2304.067 471.928a3.47 3.47 0 0 1-1.454 2.957 2.226 2.226 0 0 0-1.013 1.894v.408h-1.976v-.539a3.134 3.134 0 0 1 1.487-2.841 2.115 2.115 0 0 0 .979-1.8 1.382 1.382 0 0 0-1.421-1.568c-.866 0-1.437.556-1.551 1.634l-1.96-.147a3.386 3.386 0 0 1 3.544-3.267 3.147 3.147 0 0 1 3.365 3.269zm-4.426 6.32h1.959v2.043h-1.959z"/>
        </g>
        <path id="Path_20" d="M2291.986 476.768c-1.595-.931-2.526-4.521 1.33-6.249" class="cls-1"/>
    </g>
</svg>
