<svg xmlns="http://www.w3.org/2000/svg" width="34.542" height="27.302" viewBox="0 0 34.542 27.302">
    <defs>
        <style>
            .cls-1{fill:none;stroke:#6f4b99;stroke-linecap:round;stroke-linejoin:round;stroke-width:1.3px}
        </style>
    </defs>
    <g id="Group_46" transform="translate(-1627.933 -233.892)">
        <path id="Path_36" d="M1628.583 234.542h3.641a3.685 3.685 0 0 1 3.172 2.16l5.062 12.848a3.685 3.685 0 0 0 3.172 2.16h12.525a3.527 3.527 0 0 0 3.1-2.188l2.439-6.9a1.539 1.539 0 0 0-1.547-2.188h-17.274" class="cls-1"/>
        <path id="Path_37" d="M1645.168 257.6a2.948 2.948 0 1 1-2.948-2.948 2.948 2.948 0 0 1 2.948 2.948z" class="cls-1"/>
        <path id="Path_38" d="M1660.07 257.6a2.948 2.948 0 1 1-2.948-2.948 2.948 2.948 0 0 1 2.948 2.948z" class="cls-1"/>
        <path id="Line_8" d="M0 0L11.717 0" class="cls-1" transform="translate(1644.391 244.283)"/>
        <path id="Line_9" d="M0 0L9.626 0" class="cls-1" transform="translate(1645.586 247.599)"/>
    </g>
</svg>
